# xmcd
#
# Track frame offsets:
#	150
#	16080
#	32890
#	53045
#	68815
#	88980
#	105785
#	122690
#	139630
#	157250
#	173335
#	187155
#	205075
#	223570
#	240460
#	255270
#
# Disc length: 3651 seconds
#
# Revision: 0
# Processed by: cddbd v1.5.2PL0 Copyright (c) Steve Scherf et al.
# Submitted via: audiograbber 1.83.01
#
DISCID=d00e4110
DTITLE=Lucky Star Karaoke - Today's Country Hits Volume 2
DYEAR=2006
DGENRE=Karaoke
TTITLE0=She Let Herself Go
TTITLE1=Your Man
TTITLE2=Skin
TTITLE3=Before He Cheats
TTITLE4=Like We Never Loved At All
TTITLE5=All Jacked Up
TTITLE6=Keg In The Closet
TTITLE7=My Old Friend
TTITLE8=As Good As I Once Was
TTITLE9=Mud On The Tires
TTITLE10=Thank God I'm A Country Boy
TTITLE11=There's More Where That Came From
TTITLE12=My Sister
TTITLE13=Girls Lie Too
TTITLE14=She Don't Tell Me To
TTITLE15=Domestic, Light And Cold
EXTD=
EXTT0=George Strait
EXTT1=Josh Turner
EXTT2=Rascal Flatts
EXTT3=Carrie Underwood
EXTT4=Faith Hill and Tim McGraw
EXTT5=Gretchen Wilson
EXTT6=Kenny Chesney
EXTT7=Tim McGraw
EXTT8=Toby Keith
EXTT9=Brad Paisley
EXTT10=Billy Dean
EXTT11=Lee Ann Womack
EXTT12=Reba McIntire
EXTT13=Terri Clark
EXTT14=Montgomery Gentry
EXTT15=Dierks Bentley
PLAYORDER=
